<?xml version="1.0" encoding="UTF-8"?><svg xmlns="http://www.w3.org/2000/svg" xmlns:xlink="http://www.w3.org/1999/xlink" version="1.1" id="Layer_1" x="0px" y="0px" viewBox="0 0 24 24" xml:space="preserve"><path fill="#303C42" d="M23.5 9.5A.5.5 0 0 0 24 9V5c0-1.103-.897-2-2-2H2C.897 3 0 3.897 0 5v4a.5.5 0 0 0 .5.5C1.879 9.5 3 10.622 3 12S1.879 14.5.5 14.5a.5.5 0 0 0-.5.5v4c0 1.103.897 2 2 2h20c1.103 0 2-.897 2-2v-4a.5.5 0 0 0-.5-.5c-1.379 0-2.5-1.122-2.5-2.5s1.121-2.5 2.5-2.5z"/><path fill="#D7CCC8" d="M23 15.464V19c0 .551-.448 1-1 1H2c-.552 0-1-.449-1-1v-3.536C2.694 15.221 4 13.76 4 12S2.694 8.779 1 8.536V5c0-.551.448-1 1-1h20c.552 0 1 .449 1 1v3.536c-1.694.243-3 1.704-3 3.464s1.306 3.221 3 3.464z"/><path opacity="0.1" d="M21.5 17.5c0 .551-.448 1-1 1H1v.5c0 .551.448 1 1 1h20c.552 0 1-.449 1-1v-3.536c-.555-.08-1.06-.3-1.5-.608V17.5z"/><path fill="#303C42" d="M6.5 4.875a.5.5 0 0 0-.5.5V6.5a.5.5 0 1 0 1 0V5.375a.5.5 0 0 0-.5-.5z"/><path fill="#303C42" d="M6.5 9a.5.5 0 0 0-.5.5v1a.5.5 0 1 0 1 0v-1a.5.5 0 0 0-.5-.5z"/><path fill="#303C42" d="M6.5 13a.5.5 0 0 0-.5.5v1a.5.5 0 1 0 1 0v-1a.5.5 0 0 0-.5-.5z"/><path fill="#303C42" d="M6.5 17a.5.5 0 0 0-.5.5v1a.5.5 0 1 0 1 0v-1a.5.5 0 0 0-.5-.5z"/><path fill="#303C42" d="M18.247 10.12l-2.599-.288-.856-2.283A.85.85 0 0 0 14 7a.85.85 0 0 0-.792.549l-.856 2.283-2.601.289a.845.845 0 0 0-.455 1.483l2.038 1.747-.583 2.619a.852.852 0 0 0 .356.888c.285.19.677.186.962-.016L14 15.462l1.933 1.381a.842.842 0 0 0 .958.016.852.852 0 0 0 .358-.889l-.583-2.62 2.036-1.745a.848.848 0 0 0-.455-1.485z"/><path fill="#FDD835" d="M15.788 12.787a.499.499 0 0 0-.163.487l.56 2.521-1.894-1.354a.502.502 0 0 0-.582 0l-1.895 1.354.561-2.52a.499.499 0 0 0-.163-.488l-1.996-1.712 2.55-.283a.5.5 0 0 0 .414-.321L14 8.284l.82 2.187a.5.5 0 0 0 .413.321l2.551.283-1.996 1.712z"/><linearGradient id="SVGID_1_" gradientUnits="userSpaceOnUse" x1="-0.7076151" y1="6.0743418" x2="24.7076149" y2="17.9256592"><stop offset="0" stop-color="#FFF" stop-opacity="0.2"/><stop offset="1" stop-color="#FFF" stop-opacity="0"/></linearGradient><path fill="url(#SVGID_1_)" d="M23.5 9.5A.5.5 0 0 0 24 9V5c0-1.103-.897-2-2-2H2C.897 3 0 3.897 0 5v4a.5.5 0 0 0 .5.5C1.879 9.5 3 10.622 3 12S1.879 14.5.5 14.5a.5.5 0 0 0-.5.5v4c0 1.103.897 2 2 2h20c1.103 0 2-.897 2-2v-4a.5.5 0 0 0-.5-.5c-1.379 0-2.5-1.122-2.5-2.5s1.121-2.5 2.5-2.5z"/><metadata><rdf:RDF xmlns:rdf="http://www.w3.org/1999/02/22-rdf-syntax-ns#" xmlns:rdfs="http://www.w3.org/2000/01/rdf-schema#" xmlns:dc="http://purl.org/dc/elements/1.1/"><rdf:Description about="https://iconscout.com/legal#licenses" dc:title="leisure,ticket,pass,entry,cinema,theatre" dc:description="leisure,ticket,pass,entry,cinema,theatre" dc:publisher="Iconscout" dc:date="2017-08-16" dc:format="image/svg+xml" dc:language="en"><dc:creator><rdf:Bag><rdf:li>Those Icons</rdf:li></rdf:Bag></dc:creator></rdf:Description></rdf:RDF></metadata></svg>