<svg xmlns="http://www.w3.org/2000/svg" height="512pt" viewBox="0 -2 512 512" width="512pt"><path d="m334.410156 465.882812c6.699219-7.386718 10.777344-17.191406 10.777344-27.949218 0-22.996094-18.640625-41.636719-41.632812-41.636719-18.105469 0-33.503907 11.554687-39.238282 27.691406-3.042968-1.097656-6.324218-1.699219-9.75-1.699219-15.855468 0-28.710937 12.855469-28.710937 28.710938 0 5.449219 1.519531 10.542969 4.15625 14.886719h104.398437zm0 0" fill="#77bc4d"/><path d="m298.515625 357.390625h155.332031v113.828125h-155.332031zm0 0" fill="#f72d2d"/><path d="m335.515625 387.878906h81.332031v83.335938h-81.332031zm0 0" fill="#4d78a0"/><path d="m435.886719 357.390625h17.960937v113.828125h-17.960937zm0 0" fill="#db1212"/><path d="m292.53125 337.28125-2.484375 10.441406c-1.460937 6.132813 3.1875 12.023438 9.496094 12.023438h153.273437c6.308594 0 10.960938-5.890625 9.5-12.023438l-2.488281-10.441406c-5.160156-21.667969-24.519531-36.960938-46.796875-36.960938h-73.703125c-22.273437 0-41.636719 15.292969-46.796875 36.960938zm0 0" fill="#ff5656"/><path d="m452.816406 359.746094h-25c6.3125 0 10.960938-5.890625 9.5-12.027344l-2.488281-10.441406c-5.160156-21.660156-24.519531-36.960938-46.792969-36.960938h25c22.273438 0 41.632813 15.300782 46.792969 36.960938l2.488281 10.441406c1.460938 6.136719-3.1875 12.027344-9.5 12.027344zm0 0" fill="#f72d2d"/><path d="m357.191406 331.21875h37.980469v28.527344h-37.980469zm0 0" fill="#f7e4d7"/><path d="m504.5 501.394531h-497v-9.292969c0-17.171874 13.921875-31.09375 31.09375-31.09375h434.8125c17.171875 0 31.09375 13.921876 31.09375 31.09375zm0 0" fill="#a2d962"/><path d="m473.40625 453.507812h-12.058594v-88.535156c1.898438-1.082031 3.613282-2.511718 5.015625-4.289062 3.296875-4.171875 4.480469-9.53125 3.25-14.699219l-2.488281-10.441406c-5.988281-25.152344-28.234375-42.722657-54.09375-42.722657h-73.703125c-25.859375 0-48.101563 17.566407-54.09375 42.722657l-2.484375 10.4375c-1.230469 5.171875-.050781 10.53125 3.242188 14.703125 1.40625 1.777344 3.121093 3.207031 5.023437 4.289062v25.457032c-13.359375 3.527343-24.648437 12.574218-31.023437 24.761718-1.785157-.269531-3.597657-.402344-5.425782-.402344-19.964844 0-36.210937 16.242188-36.210937 36.210938 0 .839844.03125 1.675781.085937 2.507812h-44.574218v-12.863281h13.28125c4.144531 0 7.5-3.355469 7.5-7.5s-3.355469-7.5-7.5-7.5h-13.28125v-4.605469c0-4.140624-3.359376-7.5-7.5-7.5-4.144532 0-7.5 3.359376-7.5 7.5v4.605469h-25.027344v-4.605469c0-4.140624-3.359375-7.5-7.5-7.5-4.144532 0-7.5 3.359376-7.5 7.5v4.605469h-25.027344v-4.605469c0-4.140624-3.359375-7.5-7.5-7.5-4.144531 0-7.5 3.359376-7.5 7.5v4.605469h-25.03125v-4.605469c0-4.140624-3.355469-7.5-7.5-7.5-4.140625 0-7.5 3.359376-7.5 7.5v4.605469h-13.28125c-4.144531 0-7.5 3.355469-7.5 7.5s3.355469 7.5 7.5 7.5h13.28125v12.863281h-.1875c-21.28125 0-38.59375 17.3125-38.59375 38.59375v9.289063c0 4.144531 3.355469 7.5 7.5 7.5h108.238281c4.144531 0 7.5-3.355469 7.5-7.5 0-4.140625-3.355469-7.5-7.5-7.5h-100.738281v-1.789063c0-13.011718 10.585938-23.59375 23.59375-23.59375h434.8125c13.007812 0 23.59375 10.582032 23.59375 23.59375v1.789063h-346.738281c-4.144531 0-7.5 3.359375-7.5 7.5 0 4.144531 3.355469 7.5 7.5 7.5h354.238281c4.144531 0 7.5-3.355469 7.5-7.5v-9.289063c0-21.28125-17.3125-38.59375-38.59375-38.59375zm-130.390625-33.664062h66.332031v9.375h-66.332031zm66.332031-15h-66.332031v-9.464844h66.332031zm-66.332031 39.375h66.332031v9.289062h-66.332031zm73.832031-63.839844h-81.332031c-4.144531 0-7.5 3.355469-7.5 7.5v65.628906h-22v-86.261718h140.332031v86.261718h-22v-65.628906c0-4.144531-3.359375-7.5-7.5-7.5zm-52.160156-28.132812v-13.527344h22.984375v13.527344zm-67.347656-2.789063 2.488281-10.4375c4.371094-18.371093 20.617187-31.199219 39.5-31.199219h73.703125c18.882812 0 35.128906 12.828126 39.503906 31.199219l2.484375 10.4375c.222657.929688-.171875 1.605469-.425781 1.929688-.253906.320312-.820312.859375-1.777344.859375h-50.144531v-21.027344c0-4.140625-3.355469-7.5-7.5-7.5h-37.980469c-4.144531 0-7.5 3.359375-7.5 7.5v21.027344h-50.148437c-.953125 0-1.523438-.539063-1.777344-.859375-.253906-.324219-.648437-1-.425781-1.929688zm-63.984375 101.542969c0-11.695312 9.515625-21.210938 21.210937-21.210938 2.472656 0 4.898438.421876 7.203125 1.253907 1.878907.679687 3.949219.578125 5.75-.273438 1.804688-.851562 3.195313-2.390625 3.863281-4.269531 3.332032-9.367188 10.582032-16.738281 19.628907-20.320312v47.328124h-57.5c-.097657-.828124-.15625-1.664062-.15625-2.507812zm-74.488281-10.355469v12.863281h-25.027344v-12.863281zm-40.027344 0v12.863281h-25.027344v-12.863281zm-65.058594 0h25.03125v12.863281h-25.03125zm0 0"/><path d="m464.675781 286.785156c1.910157 0 3.824219-.730468 5.285157-2.183594l7.9375-7.890624c2.9375-2.921876 2.949218-7.667969.027343-10.605469-2.917969-2.9375-7.667969-2.953125-10.605469-.03125l-7.933593 7.890625c-2.9375 2.921875-2.953125 7.667968-.03125 10.605468 1.464843 1.476563 3.390625 2.214844 5.320312 2.214844zm0 0"/><path d="m447.253906 245.679688c-3.988281-1.089844-8.117187 1.277343-9.199218 5.277343l-2.925782 10.796875c-1.085937 4 1.277344 8.117188 5.273438 9.203125.65625.175781 1.316406.261719 1.96875.261719 3.300781 0 6.328125-2.199219 7.230468-5.539062l2.929688-10.800782c1.082031-3.996094-1.277344-8.117187-5.277344-9.199218zm0 0"/><path d="m472.859375 303.601562c.890625 3.359376 3.925781 5.582032 7.246094 5.582032.632812 0 1.28125-.082032 1.921875-.253906l10.820312-2.863282c4.003906-1.0625 6.390625-5.167968 5.328125-9.171875-1.0625-4.003906-5.171875-6.390625-9.167969-5.328125l-10.820312 2.863282c-4.003906 1.0625-6.386719 5.167968-5.328125 9.171874zm0 0"/></svg>