<svg id="Layer_1" enable-background="new 0 0 513.016 513.016" height="512" viewBox="0 0 513.016 513.016" width="512" xmlns="http://www.w3.org/2000/svg"><path d="m497.286 496.508h-480.77c0-14.083 0-239.32 0-245.899h196.086c44.414-87.5 172.914-87.5 282.914-55.101 0 286.419 1.77 101.731 1.77 301z" fill="#9bd65e"/><path d="m212.602 250.61h-88.189c2.065 60.123 37.232 85.265 106.103 48.898 107-56.5 90.536-113.5 150.383-66.5 35.355 27.766 82.196 41.482 114.617 48.06v-85.56c-110-32.398-238.5-32.398-282.914 55.102z" fill="#aced70"/><circle cx="438.266" cy="74.758" fill="#f0a567" r="58.25"/><path d="m484.955 39.922c-10.622-14.213-27.581-23.414-46.689-23.414-47.41 0-74.437 53.478-47.738 91.611 32.088-58.206 70.327-44.444 94.427-68.197z" fill="#fdaa6a"/><path d="m454.192 18.737c-33.546-9.52-67.425 12.281-73.292 45.962 17.35-34.745 58.51-24.343 73.292-45.962z" fill="#fcbc80"/><path d="m149.102 253.61h63.5v81.5h-63.5z" fill="#e0e0e0" transform="matrix(-1 0 0 -1 361.705 588.719)"/><path d="m16.516 253.61h132.586v81.5h-132.586z" fill="#d3d3d3" transform="matrix(-1 0 0 -1 165.619 588.719)"/><path d="m16.516 253.61h132.586l31.75-87.5h-132.586z" fill="#e88793"/><path d="m212.602 253.61h-63.5l31.75-87.5z" fill="#fc93a0"/><path d="m170.449 305.11c15.18-1.562 30.226-16.399 42.153-30.619v60.619h-63.5v-28.533c9.315-.501 16.771-.997 21.347-1.467z" fill="#d3d1d1"/><path d="m16.516 311.498c33.029-.98 96.652-2.99 132.586-4.922v28.533h-132.586z" fill="#c6c6c6"/><path d="m48.266 166.11h106.685c-1.347 7.431-8.169 17.119-31.502 24.095-43.163 12.905-14.163-7.095-52.163 12.905-11.983 6.307-26.816 10.737-41.015 12.595z" fill="#fc93a0"/><path d="m299.431 330.508h63.5v81.5h-63.5z" fill="#e0e0e0"/><path d="m362.931 330.508h132.586v81.5h-132.586z" fill="#d3d3d3"/><path d="m495.516 330.508h-132.585l-31.75-87.5h132.585z" fill="#e88793"/><path d="m299.431 330.508h63.5l-31.75-87.5z" fill="#fc93a0"/><path d="m341.584 382.008c-15.18-1.562-30.226-16.399-42.153-30.619v60.619h63.5v-28.533c-9.315-.5-16.771-.996-21.347-1.467z" fill="#d3d1d1"/><path d="m495.516 388.397c-33.029-.98-96.652-2.99-132.586-4.922v28.533h132.586z" fill="#d3d1d1"/><path d="m463.766 243.008h-106.684c1.347 7.431 8.169 17.119 31.502 24.095 43.163 12.905 14.163-7.095 52.163 12.905 11.983 6.307 26.816 10.737 41.015 12.595z" fill="#fc93a0"/><path d="m230.516 463.508c-50 3-83 2-171-51.5-18.612-11.315-32.557-19.026-43-24.169v108.669h475c-2-11-211-36-261-33z" fill="#91c656"/><path d="m97.121 397.695-7.457 7.457-7.458-7.457c-6.249-6.248-16.379-6.248-22.628 0-6.248 6.248-6.248 16.379 0 22.627l18.772 18.771c6.243 6.244 16.38 6.248 22.627 0l18.771-18.771c6.248-6.248 6.248-16.379 0-22.627-6.247-6.25-16.378-6.248-22.627 0z"/><path d="m197.393 397.695-7.458 7.457-7.457-7.457c-6.248-6.249-16.379-6.249-22.627 0-6.249 6.248-6.249 16.379 0 22.627l18.771 18.771c6.243 6.244 16.381 6.249 22.627 0l18.772-18.771c6.248-6.248 6.248-16.379 0-22.627-6.249-6.248-16.379-6.248-22.628 0z"/><path d="m513.016 195.508c0-7.096-4.673-13.344-11.479-15.348-93.714-27.603-221.459-37.551-284.481 37.193l-21.663-59.702c-2.359-6.443-8.411-10.542-15.041-10.542h-132.586c-6.732 0-12.744 4.214-15.041 10.542-34.524 95.148-32.709 88.949-32.709 92.959v245.898c0 8.837 7.164 16 16 16h480.77c8.837 0 16-7.163 16-16zm-196.316 197.5v-49.5h31.5v49.5zm58.715-81.5c-3.877-10.684-15.878-43.757-20.139-55.5h98.545l20.139 55.5zm-42.965-24.593c3.124 8.609 5.863 16.158 8.924 24.593h-17.848zm47.75 56.593h100.586v49.5h-100.586zm-247.598-27.398h-100.586v-49.5h100.586zm56.674-81.5h-17.847l8.924-24.592zm-24.674 32h31.5v49.5h-31.5zm-105.621-87.5h98.544l-20.139 55.5h-98.543zm421.805 301.398h-448.77v-132.398h180.086c8.836 0 16-7.163 16-16 0-79.897-.131-73.474.267-74.258 41.127-81.023 164.684-73.98 252.647-50.235 0 35.6.414 30.666-.94 26.934-2.296-6.328-8.308-10.542-15.04-10.542h-132.586c-6.808 0-12.778 4.295-15.04 10.542-34.57 95.271-32.686 88.899-32.704 92.884-.009.628-.006 63.605-.006 65.574h-16.684c-8.837 0-16 7.163-16 16s7.163 16 16 16h212.77z"/><path d="m64.559 118.928c8.836 0 16-7.163 16-16 0-23.387 26.56-36.804 45.358-23.328 8.935 6.408 21.55 2.078 24.666-8.471 3.573-12.095 14.883-20.541 27.505-20.541 15.816 0 28.684 12.867 28.684 28.684 0 8.837 7.164 16 16 16h22.378c8.836 0 16.001-7.163 16.001-16s-7.164-16-16.001-16h-8.518c-13.553-49.526-79.227-61.134-108.7-18.095-39.185-12.694-79.373 16.717-79.373 57.751 0 8.837 7.164 16 16 16z"/><path d="m437.766 149.008c40.941 0 74.25-33.309 74.25-74.25s-33.309-74.25-74.25-74.25-74.25 33.309-74.25 74.25 33.309 74.25 74.25 74.25zm0-116.5c23.297 0 42.25 18.953 42.25 42.25s-18.953 42.25-42.25 42.25-42.25-18.953-42.25-42.25 18.954-42.25 42.25-42.25z"/></svg>