<svg xmlns="http://www.w3.org/2000/svg" id="f4dfef0e-e963-4752-8b60-16883a06d9db" data-name="Layer 1" width="1080.0487" height="748.00219" viewBox="0 0 1080.0487 748.00219"><title>cancel</title><path d="M832.20759,587.46822c0,67.693-40.24241,91.32887-89.88394,91.32887s-89.88394-23.63587-89.88394-91.32887,89.88394-153.80916,89.88394-153.80916S832.20759,519.77523,832.20759,587.46822Z" transform="translate(-59.97565 -75.99891)" fill="#4ad806"/><polygon points="679.994 535.79 718.305 465.702 680.138 526.903 680.552 501.43 706.956 450.722 680.662 494.688 681.406 448.873 709.68 408.504 681.523 441.669 681.988 357.66 679.191 464.109 650.56 420.284 678.845 473.092 676.166 524.259 676.087 522.901 642.948 476.597 675.986 527.699 675.651 534.098 675.591 534.195 675.619 534.72 668.823 603 677.902 603 678.992 597.484 711.949 546.507 679.074 592.443 679.994 535.79" fill="#3f3d56"/><path d="M1140.02435,369.81269c0,129.31047-76.873,174.46085-171.7007,174.46085s-171.7007-45.15038-171.7007-174.46085S968.32365,75.99891,968.32365,75.99891,1140.02435,240.50222,1140.02435,369.81269Z" transform="translate(-59.97565 -75.99891)" fill="#f2f2f2"/><polygon points="902.093 448.494 903.851 340.273 977.035 206.388 904.127 323.296 904.918 274.635 955.355 177.771 905.127 261.758 905.127 261.759 906.549 174.24 960.558 97.124 906.772 160.478 907.661 0 902.078 212.444 902.537 203.68 847.625 119.628 901.656 220.503 896.54 318.246 896.387 315.652 833.084 227.2 896.196 324.817 895.556 337.041 895.441 337.225 895.494 338.228 882.513 586.21 899.856 586.21 901.937 458.123 964.894 360.745 902.093 448.494" fill="#3f3d56"/><path d="M1132.97565,640.5574c0,38.59549-250.36912,183.44369-543.05156,183.44369S59.97565,749.0362,59.97565,710.44071s231.44239,7.27952,524.12483,7.27952S1132.97565,601.96192,1132.97565,640.5574Z" transform="translate(-59.97565 -75.99891)" fill="#3f3d56"/><path d="M1132.97565,640.5574c0,38.59549-250.36912,183.44369-543.05156,183.44369S59.97565,749.0362,59.97565,710.44071s231.44239,7.27952,524.12483,7.27952S1132.97565,601.96192,1132.97565,640.5574Z" transform="translate(-59.97565 -75.99891)" opacity="0.1"/><path d="M1132.97565,640.5574c0,38.59549-250.36912,139.76663-543.05156,139.76663S59.97565,749.0362,59.97565,710.44071,291.418,674.04316,584.10048,674.04316,1132.97565,601.96192,1132.97565,640.5574Z" transform="translate(-59.97565 -75.99891)" fill="#3f3d56"/><path d="M774.7215,382.89095l-6.8628-6.86279a21.34485,21.34485,0,0,0-30.18617,0L604.55734,509.14335,471.44215,376.02816a21.34485,21.34485,0,0,0-30.18617,0l-6.86279,6.86279a21.34484,21.34484,0,0,0,0,30.18618L567.50837,546.19232,434.39319,679.3075a21.34484,21.34484,0,0,0,0,30.18618l6.86279,6.86279a21.34485,21.34485,0,0,0,30.18617,0L604.55734,583.24128,737.67253,716.35647a21.34485,21.34485,0,0,0,30.18617,0l6.8628-6.86279a21.34486,21.34486,0,0,0,0-30.18618L641.60631,546.19232,774.7215,413.07713A21.34486,21.34486,0,0,0,774.7215,382.89095Z" transform="translate(-59.97565 -75.99891)" fill="#ff6584"/><path d="M429.6427,686.54463,558.80505,557.38235l-1.24334-1.24334L434.39317,679.30748A21.2598,21.2598,0,0,0,429.6427,686.54463Z" transform="translate(-59.97565 -75.99891)" opacity="0.1"/><path d="M432.5526,387.21818a21.34488,21.34488,0,0,1,30.18621,0L595.854,520.33335,728.96915,387.21818a21.34488,21.34488,0,0,1,30.18621,0l6.86279,6.86279a21.34354,21.34354,0,0,1,4.75047,22.949l3.95289-3.95289a21.34479,21.34479,0,0,0,0-30.18614l-6.86279-6.86279a21.3449,21.3449,0,0,0-30.18621,0L604.55734,509.14331,471.44217,376.02814a21.3449,21.3449,0,0,0-30.18621,0l-6.86279,6.86279a21.2598,21.2598,0,0,0-4.75047,7.23715Z" transform="translate(-59.97565 -75.99891)" opacity="0.1"/><path d="M642.84968,547.43565l-9.94669,9.9467L766.01815,690.49752a21.34356,21.34356,0,0,1,4.75047,22.94907l3.95289-3.953a21.34479,21.34479,0,0,0,0-30.18614Z" transform="translate(-59.97565 -75.99891)" opacity="0.1"/><path d="M214.97565,636.19129c0,56.22159-33.42284,75.85206-74.652,75.85206s-74.652-19.63047-74.652-75.85206,74.652-127.7443,74.652-127.7443S214.97565,579.96971,214.97565,636.19129Z" transform="translate(-59.97565 -75.99891)" fill="#4ad806"/><polygon points="78.393 580.392 110.212 522.181 78.513 573.011 78.857 551.854 100.786 509.739 78.948 546.255 79.566 508.204 103.048 474.675 79.663 502.221 80.049 432.448 77.726 520.858 53.947 484.46 77.438 528.318 75.214 570.815 75.148 569.687 47.625 531.23 75.064 573.672 74.786 578.987 74.736 579.067 74.759 579.503 69.115 636.212 76.656 636.212 77.561 631.631 104.933 589.293 77.629 627.444 78.393 580.392" fill="#3f3d56"/></svg>